<?xml version="1.0" standalone="no"?>
<!DOCTYPE svg PUBLIC "-//W3C//DTD SVG 20010904//EN"
 "http://www.w3.org/TR/2001/REC-SVG-20010904/DTD/svg10.dtd">
<svg version="1.0" xmlns="http://www.w3.org/2000/svg"
 width="83.000000pt" height="96.000000pt" viewBox="0 0 83.000000 96.000000"
 preserveAspectRatio="xMidYMid meet">

<g transform="translate(0.000000,96.000000) scale(0.100000,-0.100000)"
fill="#000000" stroke="none">
<path d="M122 870 c-22 -21 -22 -23 -22 -394 0 -349 1 -374 18 -389 24 -22 65
-21 85 1 15 17 17 58 17 390 0 359 -1 373 -20 392 -26 26 -50 25 -78 0z"/>
<path d="M395 866 c-21 -21 -25 -33 -20 -54 11 -43 21 -49 90 -54 73 -6 107
-24 135 -71 36 -58 20 -132 -36 -176 -20 -16 -41 -21 -86 -21 -49 0 -63 -4
-83 -25 -30 -29 -32 -55 -6 -86 17 -21 28 -24 83 -23 86 1 133 19 190 72 135
126 100 348 -67 434 -24 13 -67 23 -107 26 -62 4 -68 3 -93 -22z"/>
</g>
</svg>
